<?xml version="1.0" standalone="no"?>
<!DOCTYPE svg PUBLIC "-//W3C//DTD SVG 20010904//EN"
 "http://www.w3.org/TR/2001/REC-SVG-20010904/DTD/svg10.dtd">
<svg version="1.0" xmlns="http://www.w3.org/2000/svg"
 width="512.000000pt" height="512.000000pt" viewBox="0 0 512.000000 512.000000"
 preserveAspectRatio="xMidYMid meet">

<g transform="translate(0.000000,512.000000) scale(0.100000,-0.100000)"
fill="#000000" stroke="none">
<path d="M1900 4943 c-333 -95 -868 -249 -1190 -342 l-585 -168 0 -1873 0
-1873 585 -168 c322 -93 857 -247 1190 -342 l605 -174 5 743 5 744 490 -490
c269 -269 494 -490 498 -490 5 0 103 93 218 207 l210 207 -107 107 -106 107
48 10 c27 6 147 30 267 54 l218 43 332 335 c183 185 348 352 367 373 l34 37
-139 141 c-151 150 -202 185 -292 196 -95 11 -132 -6 -520 -238 -201 -120
-382 -223 -402 -229 -98 -27 -208 2 -291 77 l-51 46 107 108 108 109 -497 498
-497 498 -2 960 -3 961 -605 -174z m10 -2383 l0 -150 -150 0 -150 0 0 150 0
150 150 0 150 0 0 -150z"/>
</g>
</svg>
